<svg xmlns="http://www.w3.org/2000/svg" width="1520" height="600" viewBox="0 0 1520 600">
  <g id="Line" fill="#fff">
    <path d="M2,0H1518a2,2,0,0,1,2,2V598a2,2,0,0,1-2,2H2a2,2,0,0,1-2-2V2A2,2,0,0,1,2,0Z" stroke="none"/>
    <path d="M 2 1.20001220703125 C 1.558837890625 1.20001220703125 1.199951171875 1.55877685546875 1.199951171875 2 L 1.199951171875 598 C 1.199951171875 598.4412231445312 1.558837890625 598.7999877929688 2 598.7999877929688 L 1518 598.7999877929688 C 1518.441162109375 598.7999877929688 1518.800048828125 598.4412231445312 1518.800048828125 598 L 1518.800048828125 2 C 1518.800048828125 1.55877685546875 1518.441162109375 1.20001220703125 1518 1.20001220703125 L 2 1.20001220703125 M 2 0 L 1518 0 C 1519.104614257812 0 1520 0.8953857421875 1520 2 L 1520 598 C 1520 599.1046142578125 1519.104614257812 600 1518 600 L 2 600 C 0.8953857421875 600 0 599.1046142578125 0 598 L 0 2 C 0 0.8953857421875 0.8953857421875 0 2 0 Z" stroke="none" fill="rgba(25,25,25,0.2)"/>
  </g>
</svg>
